<?xml version="1.0" encoding="UTF-8"?>
<svg id="_레이어_3" data-name="레이어 3" xmlns="http://www.w3.org/2000/svg" viewBox="0 0 160 160">
  <defs>
    <style>
      .cls-1 {
        fill: #ff8f1f;
      }
    </style>
  </defs>
  <path class="cls-1" d="M15.6,12.07v137.99c0,1.59,1.29,2.88,2.88,2.88h13.41c1.59,0,2.88-1.29,2.88-2.88v-51.74c0-1.59,1.29-2.88,2.88-2.88h21.9c8.68,0,17,3.45,23.14,9.58h0c6.14,6.14,14.46,9.58,23.14,9.58h35.58c4.62,0,8.37-3.75,8.37-8.37V36.73c0-4.62-3.75-8.37-8.37-8.37h-35.58c-8.68,0-17-3.45-23.14-9.58h0c-6.14-6.14-14.46-9.58-23.14-9.58H18.48c-1.59,0-2.88,1.29-2.88,2.88Z"/>
</svg>