<?xml version="1.0" encoding="UTF-8"?>
<svg id="_레이어_3" data-name="레이어 3" xmlns="http://www.w3.org/2000/svg" viewBox="0 0 160 160">
  <defs>
    <style>
      .cls-1 {
        fill: #646464;
      }

      .cls-2 {
        fill: #fff;
      }
    </style>
  </defs>
  <rect class="cls-1" x=".2" y=".2" width="160" height="160"/>
  <g>
    <path class="cls-2" d="M101.66,87.05c.13.31.25.62.39.92,4.86,9.92,16.84,14.02,26.76,9.15,9.92-4.86,14.02-16.84,9.15-26.76-.15-.3-.32-.58-.49-.88l-35.82,17.56Z"/>
    <path d="M107.95,83.97c.12.31.25.62.39.92,3.16,6.45,10.95,9.11,17.4,5.95,6.45-3.16,9.11-10.95,5.95-17.4-.15-.3-.32-.59-.49-.88l-23.25,11.4Z"/>
  </g>
  <g>
    <path class="cls-2" d="M57.02,87.05c-.13.31-.25.62-.39.92-4.86,9.92-16.84,14.02-26.76,9.15-9.92-4.86-14.02-16.84-9.15-26.76.15-.3.32-.58.49-.88l35.82,17.56Z"/>
    <path d="M50.74,83.97c-.12.31-.25.62-.39.92-3.16,6.45-10.95,9.11-17.4,5.95-6.45-3.16-9.11-10.95-5.95-17.4.15-.3.32-.59.49-.88l23.25,11.4Z"/>
  </g>
</svg>