<?xml version="1.0" encoding="UTF-8"?>
<svg id="_레이어_3" data-name="레이어 3" xmlns="http://www.w3.org/2000/svg" viewBox="0 0 160 160">
  <path d="M71.42,25.29c13.75-13.75,20.62-20.62,29.16-20.62s15.41,6.87,29.16,20.62c13.75,13.75,20.62,20.62,20.62,29.16s-6.87,15.41-20.62,29.16l-34.52,34.52-58.32-58.32,34.52-34.52Z"/>
  <path d="M28.17,68.53l58.32,58.32-5.36,5.36c-3.11,3.11-5.87,5.87-8.37,8.27h77.59c3.41,0,6.17,2.76,6.17,6.17s-2.76,6.17-6.17,6.17H51.59c-8.36-.21-15.23-7.08-28.77-20.62-13.75-13.75-20.62-20.62-20.62-29.16s6.87-15.41,20.62-29.16l5.36-5.36Z"/>
</svg>