<?xml version="1.0" encoding="UTF-8"?>
<svg id="_레이어_3" data-name="레이어 3" xmlns="http://www.w3.org/2000/svg" viewBox="0 0 160 160">
  <defs>
    <style>
      .cls-1 {
        fill: none;
        stroke: #e6e6e6;
        stroke-linecap: round;
        stroke-linejoin: round;
        stroke-width: 8px;
      }

      .cls-2 {
        fill: #ff7395;
      }

      .cls-3 {
        fill: #ff3f65;
      }

      .cls-4 {
        fill: #dc004a;
      }
    </style>
  </defs>
  <rect class="cls-3" x=".2" y=".2" width="160" height="160"/>
  <polygon class="cls-4" points="180.2 107.2 20.2 160.2 180.5 160.2 180.2 107.2"/>
  <polygon class="cls-2" points="-19.5 53.2 140.5 .2 -19.8 .2 -19.5 53.2"/>
  <path class="cls-1" d="M68.4,108.62v14.88M88.25,118.54v4.96M122.97,78.85v4.96c0,10.96-8.89,19.85-19.85,19.85v19.85h-49.61v-19.85c-10.96,0-19.85-8.89-19.85-19.85v-4.96c0-24.66,19.99-44.65,44.65-44.65s44.65,19.99,44.65,44.65ZM68.4,71.41c0,5.48-4.44,9.92-9.92,9.92s-9.92-4.44-9.92-9.92,4.44-9.92,9.92-9.92,9.92,4.44,9.92,9.92ZM108.09,71.41c0,5.48-4.44,9.92-9.92,9.92s-9.92-4.44-9.92-9.92,4.44-9.92,9.92-9.92,9.92,4.44,9.92,9.92Z"/>
</svg>