<?xml version="1.0" encoding="UTF-8"?>
<svg xmlns="http://www.w3.org/2000/svg"
    height="32"
    width="32"
    viewBox="0 0 40 40">
  <path d="M18.91,28.77c-2.23,0-4.04-1.81-4.04-4.04v-2.02c0-2.89,2.07-5.43,5.04-6.18,1.79-.46,3.03-2.06,3.03-3.91,0-2.23-1.81-4.04-4.04-4.04-1.16,0-2.26.5-3.03,1.37-1.48,1.67-4.03,1.83-5.7.35-1.67-1.48-1.83-4.03-.35-5.7C12.12,1.99,15.43.5,18.91.5c6.68,0,12.11,5.43,12.11,12.12,0,5.18-3.27,9.73-8.08,11.43v.69c0,2.23-1.81,4.04-4.04,4.04Z"/>
  <path d="M18.95,39.76c-2.23,0-4.06-1.81-4.06-4.04s1.79-4.04,4.02-4.04h.04c2.23,0,4.04,1.81,4.04,4.04s-1.81,4.04-4.04,4.04Z"/>
</svg>