<?xml version="1.0" encoding="UTF-8"?>
<svg xmlns="http://www.w3.org/2000/svg"
    height="32"
    width="32"
    viewBox="0 0 40 40">
  <path d="M21.85,38.07h10.65c2.02,0,3.71-.71,5.02-2.08,1.31-1.31,2.13-3.06,2.13-5.02V9.63c0-1.97-.82-3.71-2.13-5.02s-3.06-2.08-5.02-2.08h-10.65v4.48h10.65c1.53,0,2.67,1.15,2.67,2.62v21.35c0,1.47-1.15,2.67-2.67,2.67h-10.65v4.42h0ZM.5,16.07v8.52c0,.98.82,1.8,1.8,1.8h9.94v6.72c0,.6.27,1.09.82,1.36.22.05.49.05.6.05.38,0,.71-.11.98-.38l12.83-12.83c.49-.49.44-1.47,0-2.02L14.64,6.52c-.44-.44-.98-.49-1.58-.33-.55.27-.82.71-.82,1.31v6.77H2.3c-.98,0-1.8.82-1.8,1.8h0Z"/>
</svg>