<?xml version="1.0" encoding="UTF-8"?>
<svg id="_레이어_3" data-name="레이어 3" xmlns="http://www.w3.org/2000/svg" xmlns:xlink="http://www.w3.org/1999/xlink" viewBox="0 0 60 60">
  <defs>
    <style>
      .cls-1 {
        fill: #5c95fe;
      }

      .cls-2, .cls-3 {
        fill: #fff;
      }

      .cls-4 {
        fill: #5c7cf7;
      }

      .cls-5 {
        fill: none;
      }

      .cls-6 {
        clip-path: url(#clippath-1);
      }

      .cls-3 {
        stroke: #fff;
        stroke-linejoin: round;
        stroke-width: 1.5px;
      }

      .cls-7 {
        fill: #6368f7;
      }

      .cls-8 {
        clip-path: url(#clippath-3);
      }

      .cls-9 {
        fill: #71acff;
      }

      .cls-10 {
        fill: #603813;
      }

      .cls-11 {
        fill: #5c9eff;
      }

      .cls-12 {
        fill: #1a1a1a;
      }

      .cls-13 {
        fill: #42210b;
      }

      .cls-14 {
        clip-path: url(#clippath-2);
      }

      .cls-15 {
        clip-path: url(#clippath);
      }

      .cls-16 {
        fill: #754c24;
      }
    </style>
    <clipPath id="clippath">
      <path class="cls-5" d="M54.84,37.03l-11.22-5.82c5.37-6.15,9.26-12.78,10.38-23.21l12.65,6.24-11.81,22.79Z"/>
    </clipPath>
    <clipPath id="clippath-1">
      <path class="cls-5" d="M16,9s0,6-5,12C6.39,26.54,0,27,0,27c0,0,2.15-9.17,4.71-11.67s11.29-6.33,11.29-6.33Z"/>
    </clipPath>
    <clipPath id="clippath-2">
      <rect class="cls-5" x="19.73" y="32.06" width="37.69" height="24.76" transform="translate(-19.91 50.87) rotate(-55.31)"/>
    </clipPath>
    <clipPath id="clippath-3">
      <rect class="cls-5" x="38.84" y="45.39" width="21.04" height="19" transform="translate(-24.46 55.56) rotate(-48.55)"/>
    </clipPath>
  </defs>
  <path class="cls-1" d="M41.75,6.02c-12.63-2.1-27.71,4.82-33.31,10.42C1.08,23.79,1,30.23,1,30.5c0,.3.09.59.25.83,2.39,3.58,9.91,8.78,20.58,8.78.91,0,1.84-.04,2.79-.12,10.69-.89,18.42-3.99,25.85-10.36,7.34-6.29,8.46-13.62,8.51-13.93.01-.07.02-.14.02-.21,0-2.32-7.11-7.79-17.25-9.48Z"/>
  <g class="cls-15">
    <path class="cls-7" d="M41.75,6.02c-12.63-2.1-27.71,4.82-33.31,10.42C1.08,23.79,1,30.23,1,30.5c0,.3.09.59.25.83,2.39,3.58,9.91,8.78,20.58,8.78.91,0,1.84-.04,2.79-.12,10.69-.89,18.42-3.99,25.85-10.36,7.34-6.29,8.46-13.62,8.51-13.93.01-.07.02-.14.02-.21,0-2.32-7.11-7.79-17.25-9.48Z"/>
  </g>
  <g class="cls-6">
    <path class="cls-9" d="M41.75,6.02c-12.63-2.1-27.71,4.82-33.31,10.42C1.08,23.79,1,30.23,1,30.5c0,.3.09.59.25.83,2.39,3.58,9.91,8.78,20.58,8.78.91,0,1.84-.04,2.79-.12,10.69-.89,18.42-3.99,25.85-10.36,7.34-6.29,8.46-13.62,8.51-13.93.01-.07.02-.14.02-.21,0-2.32-7.11-7.79-17.25-9.48Z"/>
  </g>
  <g>
    <circle class="cls-3" cx="18" cy="27" r="5"/>
    <circle class="cls-12" cx="19.5" cy="28.5" r="3.5"/>
  </g>
  <g>
    <path class="cls-3" d="M41.32,16.05c1.87.56,6.21,5.42.77,9.14-.61.42-1.31.71-2.05.78-3.19.3-5.89-2.12-6.03-5.21,0-.16.08-.31.22-.39l6.58-4.25c.15-.1.34-.13.51-.07Z"/>
    <circle class="cls-12" cx="39.5" cy="23" r="4"/>
  </g>
  <g>
    <rect class="cls-16" x="21" y="28" width="27" height="27" rx="2.67" ry="2.67"/>
    <g class="cls-14">
      <rect class="cls-10" x="21" y="28" width="27" height="27" rx="2.67" ry="2.67"/>
    </g>
    <g class="cls-8">
      <rect class="cls-13" x="21" y="28" width="27" height="27" rx="2.67" ry="2.67"/>
    </g>
  </g>
  <path class="cls-4" d="M40.2,34c.26-1.98,2.63-4.7,7.72-5.04s6.68,2.89,7.41,5,.67,4.04-2.33,7.04-5,3-8,1c-2.35-1.57-5.19-5.03-4.8-8Z"/>
  <path class="cls-11" d="M26.34,44.24c-.24-1.99-2.34-2.74-5.32-2.38s-6.4,2.87-7.23,6.91c-.63,3.1.83,5.82,1.83,6.83,2.38,2.4,4.91,3.63,8.38,1.4,4.08-2.62,2.7-9.79,2.7-9.79l-.36-2.98Z"/>
  <path class="cls-2" d="M32.64,46.08c.43-.01.81.13,1.13.43s.49.66.5,1.1-.13.82-.43,1.14-.66.49-1.1.5-.82-.13-1.14-.43-.49-.67-.5-1.11.13-.81.43-1.13.67-.49,1.11-.5Z"/>
  <path class="cls-2" d="M35.42,34.3c1.12-.04,2.07.28,2.85.95s1.19,1.52,1.23,2.55c.02.7-.12,1.34-.42,1.89s-.85,1.18-1.63,1.85c-1.26,1.1-1.96,1.81-2.08,2.12l-.41,1.01c-.21.5-.57.76-1.07.77-.36.01-.65-.1-.9-.33s-.37-.52-.38-.87c-.04-1.04.8-2.38,2.5-4.02.7-.67,1.13-1.13,1.3-1.36s.25-.5.24-.8c-.01-.34-.15-.63-.43-.86s-.59-.34-.96-.33c-.42.01-.78.17-1.08.46s-.45.63-.44,1.01c0,.14.08.44.23.89.09.26.14.49.15.68.01.33-.09.62-.32.86s-.5.36-.82.37c-.54.02-1-.2-1.37-.67s-.57-1.07-.59-1.79c-.04-1.22.35-2.25,1.18-3.07s1.91-1.26,3.23-1.31Z"/>
  <ellipse class="cls-9" cx="17.5" cy="46" rx="1.5" ry="1" transform="translate(-26.16 23.28) rotate(-41.68)"/>
</svg>