<?xml version="1.0" encoding="UTF-8"?>

<svg xmlns="http://www.w3.org/2000/svg"
    height="40"
    width="40"
    viewBox="0 0 40 40">
<path d="M18.5,38.27v-4.47s-10.77,0-10.77,0c-1.55,0-2.7-1.21-2.7-2.7V9.51c0-1.49,1.16-2.65,2.7-2.65h10.77s0-4.53,0-4.53H7.73c-1.99,0-3.75.77-5.08,2.1S.5,7.52.5,9.51v21.59c0,1.99.83,3.75,2.15,5.08,1.32,1.38,3.04,2.1,5.08,2.1h10.77s0,0,0,0ZM11.83,16.02v8.61c0,.99.83,1.82,1.82,1.82h10.05v6.79c0,.61.28,1.1.83,1.38.22.05.5.05.61.05.39,0,.72-.11.99-.39l12.97-12.97c.5-.5.44-1.49,0-2.04l-12.97-12.92c-.44-.44-.99-.5-1.6-.33-.55.28-.83.72-.83,1.32v6.85h-10.05c-.99,0-1.82.83-1.82,1.82h0Z"/>
</svg>