<?xml version="1.0" encoding="UTF-8"?>
<svg id="_레이어_1" data-name="레이어 1" xmlns="http://www.w3.org/2000/svg" viewBox="0 0 40 40">
  <defs>
    <style>
      .cls-1 {
        fill: #b3b3b3;
      }
    </style>
  </defs>
  <path class="cls-1" d="M20,8.96c-3.51-4.09-9.37-5.35-13.77-1.61-4.4,3.74-5.02,10-1.56,14.43,2.87,3.68,11.56,11.45,14.4,13.96.32.28.48.42.66.48.16.05.34.05.5,0,.19-.06.34-.2.66-.48,2.85-2.51,11.53-10.28,14.4-13.96,3.45-4.43,2.91-10.73-1.56-14.43-4.47-3.7-10.24-2.48-13.74,1.61Z"/>
  <path d="M19.99,38.21c-.27,0-.54-.04-.81-.12-.6-.18-.99-.52-1.4-.88-3.44-3.03-11.74-10.49-14.65-14.22C1.14,20.44.23,17.28.57,14.11c.34-3.18,1.9-6.11,4.4-8.24,2.49-2.12,5.61-3.04,8.76-2.58,2.28.33,4.44,1.35,6.27,2.92,1.82-1.56,3.97-2.58,6.23-2.9,3.12-.45,6.23.45,8.76,2.55,2.54,2.11,4.12,5.04,4.45,8.25.32,3.17-.6,6.33-2.59,8.88-2.91,3.73-11.22,11.19-14.65,14.22-.41.36-.8.71-1.4.88-.26.08-.54.12-.81.12ZM12.12,7.07c-1.56,0-3.16.53-4.62,1.77-3.58,3.05-4.13,8.1-1.29,11.75,2.66,3.42,10.79,10.71,13.78,13.37,2.99-2.65,11.12-9.95,13.78-13.37,2.88-3.7,2.34-8.74-1.27-11.73-3.95-3.27-8.48-1.58-11.02,1.38-.37.43-.91.68-1.48.68s-1.11-.25-1.48-.68c-1.62-1.88-3.97-3.17-6.4-3.17Z"/>
</svg>