<?xml version="1.0" encoding="UTF-8"?>
<svg id="_레이어_3" data-name="레이어 3" xmlns="http://www.w3.org/2000/svg" viewBox="0 0 60 60">
  <defs>
    <style>
      .cls-1, .cls-2 {
        fill: #fff;
      }

      .cls-3 {
        stroke: #000;
        stroke-miterlimit: 10;
      }

      .cls-2 {
        stroke: #fff;
        stroke-linejoin: round;
        stroke-width: 1.5px;
      }
    </style>
  </defs>
  <path d="M41.75,6.02c-12.63-2.1-27.71,4.82-33.31,10.42C1.08,23.79,1,30.23,1,30.5c0,.3.09.59.25.83,2.39,3.58,9.91,8.78,20.58,8.78.91,0,1.84-.04,2.79-.12,10.69-.89,18.42-3.99,25.85-10.36,7.34-6.29,8.46-13.62,8.51-13.93.01-.07.02-.14.02-.21,0-2.32-7.11-7.79-17.25-9.48Z"/>
  <g>
    <circle class="cls-2" cx="18" cy="27" r="5"/>
    <circle class="cls-3" cx="19.5" cy="28.5" r="3.5"/>
  </g>
  <g>
    <path class="cls-2" d="M41.69,16.2c1.93.97,5.29,5.22.85,8.66-.9.7-1.99,1.16-3.13,1.14-2.91-.04-5.27-2.35-5.41-5.24,0-.16.08-.31.22-.39l6.34-4.09c.34-.22.76-.26,1.12-.08Z"/>
    <circle class="cls-3" cx="39.5" cy="22.75" r="3.75"/>
  </g>
  <rect x="21" y="28" width="27" height="27" rx="2.67" ry="2.67"/>
  <path d="M40.2,34c.26-1.98,2.63-4.7,7.72-5.04s6.68,2.89,7.41,5,.67,4.04-2.33,7.04-5,3-8,1c-2.35-1.57-5.19-5.03-4.8-8Z"/>
  <path d="M26.34,44.24c-.24-1.99-2.34-2.74-5.32-2.38s-6.4,2.87-7.23,6.91c-.63,3.1.83,5.82,1.83,6.83,2.38,2.4,4.91,3.63,8.38,1.4,4.08-2.62,2.7-9.79,2.7-9.79l-.36-2.98Z"/>
  <path class="cls-1" d="M32.64,46.08c.43-.01.81.13,1.13.43s.49.66.5,1.1-.13.82-.43,1.14-.66.49-1.1.5-.82-.13-1.14-.43-.49-.67-.5-1.11.13-.81.43-1.13.67-.49,1.11-.5Z"/>
  <path class="cls-1" d="M35.42,34.3c1.12-.04,2.07.28,2.85.95s1.19,1.52,1.23,2.55c.02.7-.12,1.34-.42,1.89s-.85,1.18-1.63,1.85c-1.26,1.1-1.96,1.81-2.08,2.12l-.41,1.01c-.21.5-.57.76-1.07.77-.36.01-.65-.1-.9-.33s-.37-.52-.38-.87c-.04-1.04.8-2.38,2.5-4.02.7-.67,1.13-1.13,1.3-1.36s.25-.5.24-.8c-.01-.34-.15-.63-.43-.86s-.59-.34-.96-.33c-.42.01-.78.17-1.08.46s-.45.63-.44,1.01c0,.14.08.44.23.89.09.26.14.49.15.68.01.33-.09.62-.32.86s-.5.36-.82.37c-.54.02-1-.2-1.37-.67s-.57-1.07-.59-1.79c-.04-1.22.35-2.25,1.18-3.07s1.91-1.26,3.23-1.31Z"/>
</svg>