<?xml version="1.0" encoding="UTF-8"?>

<svg xmlns="http://www.w3.org/2000/svg"
    height="32"
    width="32"
    viewBox="0 0 40 40">
  <path class="cls-1" d="M23.83,1.61c.17.33.21.75.3,1.6.16,1.6.24,2.4.57,2.84.42.56,1.11.84,1.81.75.55-.07,1.17-.58,2.41-1.6.66-.54.99-.81,1.34-.92.45-.14.93-.12,1.37.07.34.15.64.45,1.24,1.05l1.74,1.74c.6.6.9.9,1.05,1.24.19.43.21.92.07,1.37-.11.35-.38.68-.92,1.34-1.02,1.24-1.53,1.86-1.6,2.41-.09.69.19,1.38.75,1.81.44.33,1.24.41,2.84.57.84.08,1.27.13,1.6.3.42.22.74.58.92,1.01.14.35.14.77.14,1.62v2.46c0,.85,0,1.27-.14,1.62-.17.44-.5.8-.92,1.01-.33.17-.75.21-1.6.3h0c-1.6.16-2.4.24-2.84.57-.56.42-.84,1.11-.75,1.81.07.55.58,1.17,1.6,2.41.54.66.81.98.92,1.34.14.45.12.93-.07,1.37-.15.34-.45.64-1.05,1.24l-1.74,1.74c-.6.6-.9.9-1.24,1.05-.43.19-.92.21-1.37.07-.35-.11-.68-.38-1.34-.92h0c-1.24-1.02-1.86-1.53-2.41-1.6-.69-.09-1.38.19-1.81.75-.33.44-.41,1.24-.57,2.84-.08.84-.13,1.27-.3,1.6-.22.42-.58.74-1.01.92-.35.14-.77.14-1.62.14h-2.46c-.85,0-1.27,0-1.62-.14-.44-.17-.8-.5-1.01-.92-.17-.33-.21-.75-.3-1.6-.16-1.6-.24-2.4-.57-2.84-.42-.56-1.11-.84-1.81-.75-.55.07-1.17.58-2.41,1.6h0c-.66.54-.99.81-1.34.92-.45.14-.93.12-1.37-.07-.34-.15-.64-.45-1.24-1.05l-1.74-1.74c-.6-.6-.9-.9-1.05-1.24-.19-.43-.21-.92-.07-1.37.11-.35.38-.68.92-1.34,1.02-1.24,1.53-1.86,1.6-2.41.09-.69-.19-1.38-.75-1.81-.44-.33-1.24-.41-2.84-.57-.84-.08-1.27-.13-1.6-.3-.42-.22-.74-.58-.92-1.01-.14-.35-.14-.77-.14-1.62v-2.46c0-.85,0-1.27.14-1.62.17-.44.5-.8.92-1.01.33-.17.75-.21,1.6-.3h0c1.6-.16,2.4-.24,2.84-.57.56-.42.84-1.11.75-1.81-.07-.55-.58-1.17-1.6-2.41-.54-.66-.81-.99-.92-1.34-.14-.45-.12-.93.07-1.37.15-.34.45-.64,1.05-1.24l1.74-1.74h0c.6-.6.9-.9,1.24-1.05.43-.19.92-.21,1.37-.07.35.11.68.38,1.34.92,1.24,1.02,1.86,1.53,2.41,1.6.69.09,1.38-.19,1.81-.75.33-.44.41-1.24.57-2.84.08-.84.13-1.27.3-1.6.22-.42.58-.75,1.01-.92.34-.14.77-.14,1.62-.14h2.46c.85,0,1.27,0,1.62.14.44.17.8.5,1.01.92ZM19.97,27.82c4.3,0,7.79-3.49,7.79-7.79s-3.49-7.79-7.79-7.79-7.79,3.49-7.79,7.79,3.49,7.79,7.79,7.79Z"/>
</svg>