<?xml version="1.0" encoding="UTF-8"?>
<svg xmlns="http://www.w3.org/2000/svg"
    height="40"
    width="40"
    viewBox="0 0 40 40">
  <path d="M7.68,15.76h7.02v11.48c0,.98.82,1.79,1.79,1.79h7.02c.98,0,1.85-.82,1.85-1.79v-11.48h7.02c.92,0,1.2-.49.54-1.2L21.28,2.97c-.33-.38-.82-.6-1.31-.6s-.92.22-1.25.6L7.14,14.56c-.65.71-.44,1.2.54,1.2h0ZM.5,23.86v12.4c0,.54.27.87.87.87h37.21c.6,0,.92-.33.92-.87v-12.4c0-.54-.44-.98-.92-.98h-3.54c-.49,0-.92.49-.92.98v7.89H5.83v-7.89c0-.54-.38-.98-.87-.98H1.37c-.49,0-.87.49-.87.98Z"/>
</svg>